<svg width="114" height="100" viewBox="0 0 114 100" fill="none" xmlns="http://www.w3.org/2000/svg">
<path d="M44.0292 52.0502C44.4608 52.0502 44.6767 54.2085 44.6767 58.5251C44.6767 62.8417 44.4608 65 44.0292 65H15.3455C15.0865 65.3022 14.8922 65.6259 14.7627 65.9712C14.6332 66.3597 14.5685 66.6835 14.5685 66.9425C14.5685 68.0216 15.3239 68.5612 16.8347 68.5612H38.2018L37.2306 81.5109H14.8922C10.921 81.5109 7.87777 80.5613 5.76264 78.662C3.64752 76.7627 2.58995 74.1512 2.58995 70.8274C2.58995 68.5396 3.19427 65.6907 4.40292 62.2806C5.65473 58.8273 7.31661 55.4172 9.38857 52.0502H44.0292ZM57.2824 52.0502C57.6709 52.0502 57.9731 51.9639 58.1889 51.7912C58.4479 51.5754 58.5774 51.338 58.5774 51.079C58.5774 50.6474 58.2537 50.1078 57.6062 49.4603L45.3039 37.4818V28.4169L71.8509 18.7046L74.7646 31.0069L61.8149 35.863L66.9948 41.0429C69.3257 43.3739 70.8797 45.4027 71.6567 47.1293C72.4337 48.856 72.8222 50.82 72.8222 53.0215C72.8222 57.0359 71.5919 60.0359 69.1315 62.0216C66.7142 64.0072 63.5199 65 59.5487 65H42.714C42.2823 65 42.0665 62.8417 42.0665 58.5251C42.0665 55.7625 42.1312 53.9927 42.2607 53.2157C42.3902 52.4387 42.5413 52.0502 42.714 52.0502H57.2824ZM93.8352 52.0502C94.051 52.0502 94.2021 52.4387 94.2884 53.2157C94.4179 53.9927 94.4826 55.7625 94.4826 58.5251C94.4826 61.2877 94.4179 63.0575 94.2884 63.8345C94.2021 64.6115 94.051 65 93.8352 65H90.5977C86.4538 65 83.3027 63.8561 81.1444 61.5683C79.0293 59.2805 77.9717 55.9999 77.9717 51.7265V23.5608H90.274V50.7553C90.274 51.2301 90.3603 51.5754 90.533 51.7912C90.7488 51.9639 91.0941 52.0502 91.5689 52.0502H93.8352ZM111.32 51.7265C111.32 55.7841 110.111 59.0215 107.694 61.4388C105.32 63.8129 102.104 65 98.0464 65H92.5427C92.1111 65 91.8952 62.8417 91.8952 58.5251C91.8952 55.7625 91.96 53.9927 92.0895 53.2157C92.219 52.4387 92.37 52.0502 92.5427 52.0502H98.0464C98.9097 52.0502 99.3413 51.7265 99.3413 51.079V40.7192H111.32V51.7265ZM91.5715 78.2735V68.8849H103.874V78.2735H91.5715Z" fill="white"/>
<path d="M34.2339 68.2914H74.3217C81.4731 68.2914 87.2705 74.0887 87.2705 81.2401H34.2339V68.2914Z" fill="white"/>
<path d="M29.9903 13.4431L30.8583 17.2964C31.5946 20.5649 34.147 23.1173 37.4154 23.8535L41.2687 24.7215L37.4154 25.5895C34.147 26.3258 31.5946 28.8782 30.8583 32.1466L29.9903 35.9999L29.1223 32.1466C28.3861 28.8782 25.8337 26.3258 22.5652 25.5895L18.7119 24.7215L22.5652 23.8535C25.8337 23.1173 28.3861 20.5649 29.1223 17.2964L29.9903 13.4431Z" stroke="white" stroke-width="3.32242" stroke-linejoin="round"/>
<path d="M17.1004 29.5551L17.7204 32.3074C18.2463 34.642 20.0695 36.4652 22.4041 36.9911L25.1564 37.6111L22.4041 38.2311C20.0695 38.757 18.2463 40.5801 17.7204 42.9147L17.1004 45.6671L16.4804 42.9147C15.9545 40.5801 14.1314 38.7569 11.7968 38.2311L9.04443 37.6111L11.7968 36.9911C14.1314 36.4652 15.9545 34.642 16.4804 32.3074L17.1004 29.5551Z" stroke="white" stroke-width="3.32242" stroke-linejoin="round"/>
</svg>
