<svg width="24" height="24" viewBox="0 0 24 24" fill="none" xmlns="http://www.w3.org/2000/svg">
<path d="M6.77639 2.5529C7.02338 2.4294 7.32372 2.52951 7.44721 2.7765L8.4925 4.86708C9.38152 6.64511 9.88435 8.5628 9.99828 10.5001H14.0017C14.1156 8.5628 14.6185 6.64511 15.5075 4.86708L16.5528 2.7765C16.6763 2.52951 16.9766 2.4294 17.2236 2.5529C17.4706 2.67639 17.5707 2.97673 17.4472 3.22372L16.4019 5.31429C15.5832 6.95173 15.1163 8.71639 15.0036 10.5001H18C18.2761 10.5001 18.5 10.724 18.5 11.0001C18.5 11.2763 18.2761 11.5001 18 11.5001H14.9775C14.9975 13.3173 15.3842 15.1334 16.1402 16.8345L17.4569 19.797C17.5691 20.0494 17.4554 20.3449 17.2031 20.457C16.9507 20.5692 16.6552 20.4555 16.5431 20.2032L15.2264 17.2407C14.4128 15.4101 13.9974 13.4556 13.9774 11.5001H10.0226C10.0026 13.4556 9.58717 15.4101 8.77357 17.2407L7.45691 20.2032C7.34475 20.4555 7.04927 20.5692 6.79693 20.457C6.54459 20.3449 6.43094 20.0494 6.54309 19.797L7.85976 16.8345C8.61583 15.1334 9.00255 13.3173 9.02249 11.5001H6C5.72386 11.5001 5.5 11.2763 5.5 11.0001C5.5 10.724 5.72386 10.5001 6 10.5001H8.99643C8.88373 8.71639 8.41679 6.95173 7.59807 5.31429L6.55279 3.22372C6.42929 2.97673 6.5294 2.67639 6.77639 2.5529Z" fill="#1A1D1E" stroke="#1A1D1E" stroke-width="0.5" stroke-linecap="round"/>
</svg>
