<svg width="111" height="96" viewBox="0 0 111 96" fill="none" xmlns="http://www.w3.org/2000/svg">
<path d="M42.6521 49.6023C43.0654 49.6023 43.272 51.6686 43.272 55.8012C43.272 59.9337 43.0654 62 42.6521 62H15.1913C14.9433 62.2893 14.7573 62.5992 14.6334 62.9298C14.5094 63.3018 14.4474 63.6117 14.4474 63.8597C14.4474 64.8928 15.1706 65.4094 16.617 65.4094H37.0732L36.1433 77.8071H14.7573C10.9554 77.8071 8.04193 76.8979 6.01697 75.0796C3.99201 73.2612 2.97954 70.761 2.97954 67.579C2.97954 65.3887 3.5581 62.6612 4.71521 59.3965C5.91366 56.0904 7.50469 52.8257 9.48832 49.6023H42.6521ZM55.3404 49.6023C55.7123 49.6023 56.0016 49.5197 56.2082 49.3544C56.4562 49.1477 56.5802 48.9204 56.5802 48.6725C56.5802 48.2592 56.2702 47.7427 55.6503 47.1228L43.8725 35.6549V26.9765L69.2878 17.6783L72.0773 29.4561L59.6796 34.1052L64.6387 39.0643C66.8702 41.2959 68.358 43.2382 69.1018 44.8912C69.8457 46.5442 70.2176 48.4245 70.2176 50.5321C70.2176 54.3754 69.0398 57.2476 66.6843 59.1485C64.37 61.0495 61.3119 62 57.51 62H41.393C40.9797 62 40.7731 59.9337 40.7731 55.8012C40.7731 53.1563 40.8351 51.462 40.9591 50.7181C41.083 49.9742 41.2277 49.6023 41.393 49.6023H55.3404ZM90.3348 49.6023C90.5414 49.6023 90.6861 49.9742 90.7687 50.7181C90.8927 51.462 90.9547 53.1563 90.9547 55.8012C90.9547 58.446 90.8927 60.1403 90.7687 60.8842C90.6861 61.6281 90.5414 62 90.3348 62H87.2354C83.2681 62 80.2513 60.9049 78.1851 58.7146C76.1601 56.5244 75.1476 53.3836 75.1476 49.2924V22.3274H86.9254V48.3625C86.9254 48.8171 87.0081 49.1477 87.1734 49.3544C87.38 49.5197 87.7106 49.6023 88.1652 49.6023H90.3348ZM107.074 49.2924C107.074 53.177 105.917 56.2764 103.603 58.5906C101.33 60.8635 98.2511 62 94.3665 62H89.0974C88.6842 62 88.4776 59.9337 88.4776 55.8012C88.4776 53.1563 88.5395 51.462 88.6635 50.7181C88.7875 49.9742 88.9321 49.6023 89.0974 49.6023H94.3665C95.193 49.6023 95.6062 49.2924 95.6062 48.6725V38.7543H107.074V49.2924ZM88.1676 74.7076V65.7193H99.9454V74.7076H88.1676Z" fill="#1A1D1E"/>
<path d="M33.2747 65.3799H71.6535C78.5 65.3799 84.0502 70.9301 84.0502 77.7766H33.2747V65.3799Z" fill="#1A1D1E"/>
<path d="M29.2119 12.8701L30.0429 16.5591C30.7478 19.6882 33.1913 22.1318 36.3204 22.8367L40.0095 23.6677L36.3204 24.4987C33.1913 25.2036 30.7478 27.6471 30.0429 30.7762L29.2119 34.4653L28.3809 30.7762C27.676 27.6471 25.2324 25.2036 22.1033 24.4987L18.4143 23.6677L22.1033 22.8367C25.2324 22.1318 27.676 19.6883 28.3809 16.5592L29.2119 12.8701Z" stroke="#1A1D1E" stroke-width="3.18077" stroke-linejoin="round"/>
<path d="M16.8717 28.2954L17.4653 30.9304C17.9688 33.1655 19.7142 34.9109 21.9493 35.4144L24.5843 36.008L21.9493 36.6015C19.7142 37.105 17.9688 38.8504 17.4653 41.0855L16.8717 43.7205L16.2782 41.0855C15.7747 38.8504 14.0293 37.105 11.7942 36.6015L9.15918 36.008L11.7942 35.4144C14.0293 34.9109 15.7747 33.1655 16.2782 30.9304L16.8717 28.2954Z" stroke="#1A1D1E" stroke-width="3.18077" stroke-linejoin="round"/>
</svg>
