<svg width="65" height="24" viewBox="0 0 65 24" fill="none" xmlns="http://www.w3.org/2000/svg">
<path d="M60.9393 6.56754C59.424 6.56754 58.2497 5.43113 58.2497 4.02956C58.2497 2.09766 59.765 0.658211 61.7726 0.658211C63.3257 0.658211 64.5 1.71886 64.5 3.19619C64.5 5.12809 63.0227 6.56754 60.9393 6.56754ZM59.8269 22.3857C59.623 22.9673 59.0739 23.3567 58.4576 23.3567C57.8099 23.3567 57.2817 22.8378 57.2701 22.1902L57.0822 11.6396C57.0572 10.2354 57.8203 8.93524 59.0586 8.27247L59.4809 8.04646C60.2938 7.61136 61.2631 7.58011 62.1024 7.96193C63.46 8.57956 64.1221 10.131 63.6287 11.5385L59.8269 22.3857Z" fill="#FFCC4E"/>
<path d="M54.9754 12.9067C54.9754 14.8949 54.0837 16.4755 52.3004 17.6693C51.6362 18.1139 51.3568 18.9943 51.7695 19.6787L52.7573 21.3166C53.2993 22.2154 52.652 23.3617 51.6024 23.3617H48.3194C47.843 23.3617 47.402 23.1104 47.1591 22.7006L45.3785 19.6957C45.2158 19.4212 45.1557 19.098 45.2089 18.7834L45.3912 17.705C45.5008 17.0561 46.0685 16.6063 46.7164 16.4911C48.1127 16.2431 48.801 15.4836 48.801 14.2325C48.801 13.691 48.6268 13.2656 48.2646 12.9702C47.9676 12.7279 47.5433 12.7763 47.2215 12.9843C45.4607 14.1226 43.7466 16.3007 43.1947 19.2327L42.6697 22.2446C42.5571 22.8904 41.9965 23.3617 41.341 23.3617H38.4013C37.5624 23.3617 36.9271 22.604 37.0733 21.7779L40.586 1.93985C40.6942 1.32848 41.2059 0.870015 41.8254 0.829256L44.8103 0.632882C45.684 0.575403 46.38 1.35276 46.2266 2.2148L45.1266 8.39897L44.5263 10.9752C44.4592 11.2629 44.8228 11.4237 44.9902 11.1804C46.0219 9.68071 47.1011 8.29395 49.104 8.13381C52.0496 7.8983 54.9754 10.2172 54.9754 12.9067Z" fill="#FFCC4E"/>
<path d="M29.8567 7.68882C31.3979 7.68882 32.8182 7.82173 34.1107 8.08075C35.7603 8.41132 36.6639 10.0779 36.3814 11.7364L34.7962 21.0422C34.5687 22.3777 33.4114 23.3545 32.0567 23.3545H30.8917C29.7619 23.3545 28.9087 22.33 29.113 21.2188C29.1827 20.8398 28.7106 20.6436 28.4893 20.959C27.6152 22.2045 26.7418 23.2159 25.0838 23.3545C22.009 23.6114 19.9699 20.7057 19.9699 17.338C19.9699 14.6135 20.8791 12.3053 22.6595 10.4511C24.4398 8.59697 26.8263 7.68882 29.8567 7.68882ZM25.9814 17.171C26.094 18.2516 27.3746 18.3054 28.1334 17.5278C29.2048 16.4298 30.1398 14.8038 30.4628 12.9485C30.5309 12.5402 30.3349 12.1134 29.9271 12.0422C29.7709 12.0149 29.6086 12.0025 29.44 12.0025C28.493 12.0025 27.6596 12.4945 26.9778 13.4405C26.296 14.4243 25.955 15.4838 25.955 16.619C25.955 16.8178 25.9637 17.0018 25.9814 17.171Z" fill="#FFCC4E"/>
<path d="M16.2264 12.0702C15.9489 12.2241 15.9556 12.6557 16.2329 12.8099C17.6928 13.6218 18.4227 14.8267 18.4227 16.4246C18.4227 18.5459 17.5136 20.2126 15.6575 21.4627C13.8013 22.7127 11.377 23.3567 8.34656 23.3567H1.84901C1.00997 23.3567 0.374588 22.5987 0.52109 21.7726L3.71717 3.74935C3.83136 3.1054 4.3911 2.63619 5.04509 2.63619H11.5664C16.8318 2.63619 19.1425 4.60597 19.1425 7.48487C19.1425 9.47697 18.1794 10.9875 16.2264 12.0702ZM10.8467 6.87878H10.1637C9.50759 6.87878 8.94669 7.35094 8.8348 7.99742L8.61979 9.2397C8.47708 10.0642 9.11189 10.8183 9.94867 10.8183H10.0133C11.7179 10.8183 12.8543 9.87133 12.8543 8.46976C12.8543 7.44699 12.0967 6.87878 10.8467 6.87878ZM7.14468 17.5339C7.00088 18.3589 7.63585 19.1141 8.47329 19.1141H8.91477C11.0739 19.1141 12.324 18.205 12.324 16.6898C12.324 15.5534 11.4906 14.9852 9.78601 14.9852H8.72285C8.06737 14.9852 7.5068 15.4565 7.39424 16.1022L7.14468 17.5339Z" fill="#FFCC4E"/>
</svg>
