<svg width="16" height="16" viewBox="0 0 16 16" fill="none" xmlns="http://www.w3.org/2000/svg">
<path d="M12.6328 5.50684C12.6405 5.61703 12.7361 5.70009 12.8463 5.69234L13.8005 5.62527C13.9107 5.61752 13.9937 5.52191 13.986 5.41172L13.7748 2.41099C13.7678 2.3116 13.6887 2.23252 13.5893 2.22552L10.5889 2.01406C10.4787 2.00629 10.3831 2.08931 10.3753 2.19949L10.308 3.15361C10.3002 3.2638 10.3833 3.35943 10.4935 3.36719L11.1588 3.41406C11.3299 3.42611 11.4075 3.63371 11.2862 3.75497L9.69133 5.35018C9.62094 5.42058 9.50975 5.4281 9.42799 5.3713C8.64227 4.82555 7.71102 4.53162 6.73437 4.53162C5.46968 4.53162 4.28096 5.02404 3.38679 5.91799C2.49262 6.81211 2 8.00093 2 9.26555C2 10.53 2.49245 11.719 3.38679 12.6131C4.28079 13.5072 5.46968 14 6.73437 14C7.99907 14 9.18813 13.5074 10.0825 12.6131C11.7232 10.9722 11.9047 8.41721 10.6284 6.57333C10.5718 6.49157 10.5793 6.38043 10.6496 6.31012L12.2452 4.71463C12.3665 4.59337 12.5741 4.67097 12.5861 4.84205L12.6328 5.50684ZM9.12318 11.6539C8.4849 12.292 7.63668 12.6435 6.73437 12.6435C5.83223 12.6435 4.98402 12.2923 4.34607 11.6539C3.70796 11.0158 3.3566 10.1676 3.3566 9.26555C3.3566 8.36346 3.70796 7.5153 4.34607 6.87739C4.98402 6.23931 5.83206 5.88814 6.73437 5.88814C7.63668 5.88814 8.4849 6.23931 9.12318 6.87739C10.4401 8.19424 10.4401 10.3369 9.12318 11.6539Z" fill="#1A1D1E"/>
</svg>
