<svg width="16" height="16" viewBox="0 0 16 16" fill="none" xmlns="http://www.w3.org/2000/svg">
<path d="M5.97465 12.6073L6.28419 12.2146L5.97465 12.6073ZM8.00016 3.66709L7.63992 4.01382C7.73418 4.11175 7.86424 4.16709 8.00016 4.16709C8.13609 4.16709 8.26615 4.11175 8.36041 4.01382L8.00016 3.66709ZM10.0257 12.6073L10.3352 12.9999L10.0257 12.6073ZM6.28419 12.2146C5.27376 11.418 4.16887 10.6402 3.29235 9.65318C2.43297 8.68549 1.8335 7.55633 1.8335 6.0914H0.833496C0.833496 7.86842 1.57383 9.22403 2.54464 10.3172C3.49831 11.3911 4.71401 12.2501 5.66511 12.9999L6.28419 12.2146ZM1.8335 6.0914C1.8335 4.65749 2.64374 3.45501 3.74973 2.94946C4.82421 2.45832 6.26794 2.58838 7.63992 4.01382L8.36041 3.32035C6.7325 1.62901 4.84289 1.35026 3.334 2.03997C1.85664 2.71528 0.833496 4.28335 0.833496 6.0914H1.8335ZM5.66511 12.9999C6.0066 13.2691 6.37319 13.5562 6.74471 13.7733C7.11607 13.9903 7.5399 14.1667 8.00016 14.1667V13.1667C7.79376 13.1667 7.55092 13.0862 7.24924 12.9099C6.94771 12.7337 6.63488 12.491 6.28419 12.2146L5.66511 12.9999ZM10.3352 12.9999C11.2863 12.2501 12.502 11.3911 13.4557 10.3172C14.4265 9.22403 15.1668 7.86842 15.1668 6.0914H14.1668C14.1668 7.55633 13.5674 8.68549 12.708 9.65318C11.8315 10.6402 10.7266 11.418 9.71613 12.2146L10.3352 12.9999ZM15.1668 6.0914C15.1668 4.28335 14.1437 2.71528 12.6663 2.03997C11.1574 1.35026 9.26783 1.62901 7.63992 3.32035L8.36041 4.01382C9.73239 2.58838 11.1761 2.45832 12.2506 2.94946C13.3566 3.45501 14.1668 4.65749 14.1668 6.0914H15.1668ZM9.71613 12.2146C9.36544 12.491 9.05262 12.7337 8.75109 12.9099C8.4494 13.0862 8.20656 13.1667 8.00016 13.1667V14.1667C8.46043 14.1667 8.88426 13.9903 9.25561 13.7733C9.62713 13.5562 9.99373 13.2691 10.3352 12.9999L9.71613 12.2146Z" fill="#1A1D1E"/>
</svg>
