<svg width="16" height="16" viewBox="0 0 16 16" fill="none" xmlns="http://www.w3.org/2000/svg">
<path d="M11.9486 7.44579L11.9488 7.44618C11.9957 7.53957 11.959 7.65511 11.8639 7.70443C11.8351 7.71825 11.8057 7.72442 11.7773 7.72442C11.706 7.72442 11.6384 7.68498 11.6044 7.61751L11.3067 7.76736L11.6048 7.61817C11.215 6.83931 11.1737 6.21004 11.2807 5.66672C11.3907 5.10801 11.6599 4.61976 11.942 4.11415L11.9421 4.11391C11.947 4.10517 11.9518 4.09642 11.9567 4.08766C12.3123 3.44922 12.699 2.75487 12.654 1.86984C12.6491 1.76258 12.7309 1.67287 12.837 1.66746L12.837 1.66749L12.8413 1.66722C12.9405 1.6609 13.0327 1.73897 13.0384 1.84982L13.0384 1.85005C13.0894 2.83283 12.6827 3.57484 12.2772 4.30083L12.2769 4.30149C12.2719 4.31053 12.2668 4.31957 12.2618 4.32861C12.0168 4.76949 11.7671 5.21892 11.6662 5.71333C11.5588 6.23957 11.622 6.79343 11.9486 7.44579Z" fill="#1A1D1E" stroke="#1A1D1E" stroke-width="0.666667"/>
<path d="M14.4259 7.63561C14.3291 7.43001 14.2233 7.20361 14.1133 6.94301C13.7305 6.03741 14.6523 5.21361 14.6613 5.20601C14.8795 5.01541 14.9009 4.68241 14.7105 4.46421C14.5181 4.24541 14.1867 4.22521 13.9687 4.41421C13.9075 4.46861 12.4701 5.75421 13.1435 7.35101C13.2605 7.62661 13.3727 7.86641 13.4749 8.08401C13.8345 8.84821 13.9981 9.19821 13.8061 9.93401C13.7333 10.2152 13.9015 10.5028 14.1823 10.5762C14.2263 10.5864 14.2709 10.5938 14.3155 10.5938C14.5493 10.5938 14.7623 10.436 14.8235 10.2004C15.1111 9.09401 14.8093 8.45181 14.4259 7.63561Z" fill="#1A1D1E"/>
<path d="M12.8136 11.3484C12.7764 11.314 12.7398 11.2796 12.6914 11.2574C12.667 11.2456 12.6416 11.241 12.6178 11.2304C12.5956 11.2186 12.576 11.2022 12.5524 11.1918L3.91799 7.07183C3.48199 6.86483 2.99159 6.83943 2.53679 7.00183C2.08259 7.16263 1.71719 7.49043 1.50859 7.92543C1.08119 8.82683 1.46319 9.90643 2.36139 10.3342L5.74979 11.9502C5.75139 11.9518 5.75239 11.9518 5.75399 11.9534C5.75459 11.9534 5.75539 11.9534 5.75539 11.9534L10.9962 14.4514C11.0176 14.462 11.0418 14.4662 11.0642 14.4768C11.0894 14.49 11.1102 14.508 11.1356 14.5198C11.195 14.5484 11.2568 14.56 11.3186 14.5662C12.1276 14.7654 13.0398 14.365 13.4042 13.5994C13.6128 13.1642 13.6396 12.6756 13.4786 12.2212C13.352 11.8622 13.1182 11.563 12.8136 11.3484ZM4.90119 9.54463C4.78459 9.78883 4.73259 10.045 4.73039 10.2996L2.81459 9.38643C2.43859 9.20643 2.27839 8.75523 2.45739 8.37803C2.63059 8.01603 3.10139 7.84923 3.46579 8.02203L5.38079 8.93503C5.18199 9.10043 5.01539 9.30483 4.90119 9.54463ZM10.2834 12.111C10.1658 12.3552 10.115 12.6114 10.1122 12.8664L6.20379 11.0028C6.02399 10.916 5.88719 10.7646 5.82039 10.5738C5.75339 10.3844 5.76299 10.1788 5.85019 9.99723C6.02479 9.63203 6.49299 9.46563 6.85819 9.64143C6.85899 9.64143 6.85979 9.64143 6.86059 9.64143L10.7634 11.5016C10.5664 11.6642 10.3988 11.8668 10.2834 12.111ZM12.4566 13.145C12.3688 13.3294 12.2168 13.4664 12.027 13.5336C11.861 13.5918 11.6836 13.5886 11.519 13.529C11.1958 13.3294 11.0648 12.9138 11.2314 12.5626C11.399 12.2122 11.8058 12.0512 12.1662 12.181C12.3152 12.2704 12.4286 12.406 12.4866 12.5712C12.5544 12.7606 12.543 12.9644 12.4566 13.145Z" fill="#1A1D1E"/>
</svg>
