<svg width="16" height="16" viewBox="0 0 16 16" fill="none" xmlns="http://www.w3.org/2000/svg">
<path d="M14 7.99983V4.47909C14 3.01914 14 2.28917 13.5285 1.88975C13.057 1.49033 12.3363 1.61045 10.8949 1.85068L10.192 1.96783C9.0985 2.15008 8.55175 2.24121 8 2.24121C7.44825 2.24121 6.9015 2.15008 5.80801 1.96783L5.10506 1.85068C3.66369 1.61045 2.943 1.49033 2.4715 1.88975C2 2.28917 2 3.01914 2 4.47909V7.99983C2 11.6601 4.82597 13.4363 6.59904 14.1905C7.08001 14.3951 7.32049 14.4974 8 14.4974C8.67951 14.4974 8.91999 14.3951 9.40096 14.1905C11.174 13.4363 14 11.6601 14 7.99983Z" stroke="#1A1D1E"/>
<path d="M4.3335 6.00016C4.52758 5.61177 5.05126 5.3335 5.66683 5.3335C6.2824 5.3335 6.80608 5.61177 7.00016 6.00016" stroke="#1A1D1E" stroke-linecap="round"/>
<path d="M9 6.00016C9.19408 5.61177 9.71776 5.3335 10.3333 5.3335C10.9489 5.3335 11.4726 5.61177 11.6667 6.00016" stroke="#1A1D1E" stroke-linecap="round"/>
<path d="M5.6665 9.3335C5.6665 9.3335 6.3665 10.0002 7.99984 10.0002C9.63317 10.0002 10.3332 9.3335 10.3332 9.3335" stroke="#1A1D1E" stroke-linecap="round"/>
</svg>
