<svg width="16" height="16" viewBox="0 0 16 16" fill="none" xmlns="http://www.w3.org/2000/svg">
<path d="M10.3335 5.99984L10.3335 9.99984C10.3335 10.3098 10.3335 10.4648 10.3676 10.592C10.46 10.9371 10.7296 11.2066 11.0747 11.2991C11.2018 11.3332 11.3568 11.3332 11.6668 11.3332C11.9768 11.3332 12.1318 11.3332 12.259 11.2991C12.6041 11.2066 12.8736 10.9371 12.9661 10.592C13.0002 10.4648 13.0002 10.3098 13.0002 9.99984V5.99984C13.0002 5.68985 13.0002 5.53485 12.9661 5.40769C12.8736 5.06259 12.6041 4.79305 12.259 4.70058C12.1318 4.6665 11.9768 4.6665 11.6668 4.6665C11.3568 4.6665 11.2018 4.6665 11.0747 4.70058C10.7296 4.79304 10.46 5.06259 10.3676 5.40768C10.3335 5.53485 10.3335 5.68985 10.3335 5.99984Z" stroke="#1A1D1E"/>
<path d="M3 5.99984L3 9.99984C3 10.3098 3 10.4648 3.03407 10.592C3.12654 10.9371 3.39609 11.2066 3.74118 11.2991C3.86835 11.3332 4.02334 11.3332 4.33333 11.3332C4.64332 11.3332 4.79832 11.3332 4.92549 11.2991C5.27058 11.2066 5.54013 10.9371 5.63259 10.592C5.66667 10.4648 5.66667 10.3098 5.66667 9.99984V5.99984C5.66667 5.68985 5.66667 5.53485 5.63259 5.40769C5.54013 5.06259 5.27058 4.79305 4.92549 4.70058C4.79832 4.6665 4.64332 4.6665 4.33333 4.6665C4.02334 4.6665 3.86835 4.6665 3.74118 4.70058C3.39609 4.79304 3.12654 5.06259 3.03407 5.40768C3 5.53485 3 5.68985 3 5.99984Z" stroke="#1A1D1E"/>
<path d="M3.3335 6.6665H2.66683C1.93045 6.6665 1.3335 7.26346 1.3335 7.99984C1.3335 8.73622 1.93045 9.33317 2.66683 9.33317H3.3335M6.00016 7.99984H10.0002M12.6668 9.33317H13.3335C14.0699 9.33317 14.6668 8.73622 14.6668 7.99984C14.6668 7.26346 14.0699 6.6665 13.3335 6.6665H12.6668" stroke="#1A1D1E"/>
</svg>
